HIERARCHY
ROOT Hips
{
    OFFSET 0.000000 0.000000 0.000000
    CHANNELS 6 Xposition Yposition Zposition Zrotation Xrotation Yrotation
    JOINT Spine
    {
        OFFSET -0.000000 8.172037 0.000000
        CHANNELS 3 Zrotation Xrotation Yrotation
        JOINT Spine1
        {
            OFFSET -0.000000 18.392342 0.000000
            CHANNELS 3 Zrotation Xrotation Yrotation
            JOINT Neck
            {
                OFFSET -0.000000 18.316809 1.665164
                CHANNELS 3 Zrotation Xrotation Yrotation
                JOINT Head
                {
                    OFFSET -0.000000 13.952258 -1.993180
                    CHANNELS 3 Zrotation Xrotation Yrotation
                    End Site
                    {
                        OFFSET -0.000000 24.914745 0.000000
                    }
                }
            }
            JOINT LeftShoulder
            {
                OFFSET 4.035833 16.062790 -0.310290
                CHANNELS 3 Zrotation Xrotation Yrotation
                JOINT LeftArm
                {
                    OFFSET 12.395579 0.000000 0.000000
                    CHANNELS 3 Zrotation Xrotation Yrotation
                    JOINT LeftForeArm
                    {
                        OFFSET 26.414022 0.000000 0.000000
                        CHANNELS 3 Zrotation Xrotation Yrotation
                        JOINT LeftHand
                        {
                            OFFSET 28.641636 0.000000 0.000000
                            CHANNELS 3 Zrotation Xrotation Yrotation
                            End Site
                            {
                                OFFSET 14.948848 0.000000 0.000000
                            }
                        }
                    }
                }
            }
            JOINT RightShoulder
            {
                OFFSET -3.919767 16.062790 -0.310290
                CHANNELS 3 Zrotation Xrotation Yrotation
                JOINT RightArm
                {
                    OFFSET -12.395579 0.000000 0.000000
                    CHANNELS 3 Zrotation Xrotation Yrotation
                    JOINT RightForeArm
                    {
                        OFFSET -26.414022 0.000000 0.000000
                        CHANNELS 3 Zrotation Xrotation Yrotation
                        JOINT RightHand
                        {
                            OFFSET -28.641636 0.000000 0.000000
                            CHANNELS 3 Zrotation Xrotation Yrotation
                            End Site
                            {
                                OFFSET -14.948848 0.000000 0.000000
                            }
                        }
                    }
                }
            }
        }
    }
    JOINT LeftUpLeg
    {
        OFFSET 9.965899 0.000000 0.000000
        CHANNELS 3 Zrotation Xrotation Yrotation
        JOINT LeftLeg
        {
            OFFSET -0.000000 -49.671295 0.000000
            CHANNELS 3 Zrotation Xrotation Yrotation
            JOINT LeftFoot
            {
                OFFSET -0.000000 -36.155865 0.000000
                CHANNELS 3 Zrotation Xrotation Yrotation
                JOINT LeftToeBase
                {
                    OFFSET -0.000000 -6.477834 14.948848
                    CHANNELS 3 Zrotation Xrotation Yrotation
                    End Site
                    {
                        OFFSET -0.000000 0.000000 3.986359
                    }
                }
            }
        }
    }
    JOINT RightUpLeg
    {
        OFFSET -9.965899 0.000000 0.000000
        CHANNELS 3 Zrotation Xrotation Yrotation
        JOINT RightLeg
        {
            OFFSET -0.000000 -49.671295 0.000000
            CHANNELS 3 Zrotation Xrotation Yrotation
            JOINT RightFoot
            {
                OFFSET -0.000000 -36.155865 0.000000
                CHANNELS 3 Zrotation Xrotation Yrotation
                JOINT RightToeBase
                {
                    OFFSET -0.000000 -6.477834 14.948848
                    CHANNELS 3 Zrotation Xrotation Yrotation
                    End Site
                    {
                        OFFSET -0.000000 0.000000 3.986359
                    }
                }
            }
        }
    }
}
MOTION
Frames:    13
Frame Time:    0.010000
-12.466580    96.661606    133.784973    -1.528400    -6.618419    -178.945053    0.182980    -8.994996    1.719314    -1.152472    -0.134552    1.703559    2.398978    16.710533    0.196935    -0.988653    -0.574192    0.069347    8.852831    6.327774    8.262831    -64.473778    22.743462    -25.791824    -0.063679    -10.558215    -72.028297    -4.486888    -10.755256    3.935654    -3.955231    7.332441    3.635313    69.737572    9.725344    4.816868    19.731787    6.419192    13.860173    -2.102378    4.109524    -5.613412    5.415286    -18.218645    7.396981    -3.834533    34.348396    -1.596079    3.140415    -8.567542    -8.036007    0.000000    0.000000    0.000000    -3.464222    -4.939486    -0.504800    8.499934    9.808382    4.590530    -21.116488    -8.640789    -5.210786    0.000000    0.000000    0.000000    
-12.514756    96.671638    133.757477    -1.536502    -6.747468    -179.252350    0.164660    -9.155416    1.736238    -1.251846    -0.048461    1.722564    2.716905    16.728821    0.315413    -1.241378    -1.406869    0.148144    8.920082    6.262586    8.153929    -64.694054    22.801661    -25.121069    -0.013869    -10.137448    -71.432716    -4.653207    -10.302164    3.873720    -3.843921    7.213353    3.551727    69.226501    9.183272    5.115743    20.764120    5.081235    13.581750    -1.734481    2.637973    -3.398111    5.376771    -17.847374    7.439795    -3.772327    33.731789    -2.238685    2.942322    -9.099148    -7.087593    0.000000    0.000000    0.000000    -3.499801    -4.938587    -0.061949    8.567492    9.413213    4.298880    -21.097683    -8.523320    -4.982431    0.000000    0.000000    0.000000    
-12.574969    96.669586    133.733963    -1.458428    -6.946893    -179.381104    0.142012    -9.387123    1.656945    -1.132187    -0.062382    1.644682    3.053749    17.047188    0.421560    -1.814500    -2.513389    0.163450    8.809075    6.490906    8.084980    -64.841026    22.866112    -24.687223    -0.285582    -9.792594    -70.852081    -4.254954    -10.147529    4.232873    -3.970881    7.200179    3.531855    69.128624    9.269085    5.171053    21.130644    6.759751    14.134866    -2.656918    4.217663    -4.155043    5.341566    -17.575294    7.169840    -3.780255    33.045433    -2.315473    2.965559    -9.559270    -6.846176    0.000000    0.000000    0.000000    -3.492626    -5.044332    -0.375485    8.581088    9.268713    4.626128    -21.019411    -8.484531    -4.835368    0.000000    0.000000    0.000000    
-12.641388    96.660973    133.717834    -1.376575    -7.171642    -179.528442    0.194827    -9.615864    1.606672    -1.197299    -0.074831    1.589516    3.262699    17.131519    0.487781    -1.917671    -3.251888    0.207613    8.836372    6.748958    8.167620    -64.995995    23.095739    -24.437239    -0.465031    -9.453698    -70.006546    -4.052281    -9.930191    4.458192    -3.903961    7.102192    3.496699    68.981720    9.512174    5.177723    21.169279    6.942290    14.820772    -2.542512    4.263708    -4.233836    5.285713    -17.315132    7.000112    -3.674063    32.271015    -2.424351    3.051260    -9.892297    -6.687310    0.000000    0.000000    0.000000    -3.358450    -5.099028    -1.119176    8.235796    8.934749    5.022936    -20.704071    -8.513567    -4.323742    0.000000    0.000000    0.000000    
-12.702012    96.685661    133.643814    -1.394221    -7.235044    -179.862320    0.013257    -9.796585    1.630697    -0.976588    -0.019315    1.629418    3.250273    17.220051    0.558510    -1.874005    -3.903562    0.280888    8.727835    6.816861    8.092197    -65.318939    22.961374    -23.842955    -0.842605    -8.781545    -68.999062    -4.098392    -9.509028    4.407855    -4.011918    7.054403    3.479729    68.859024    9.609308    5.273840    21.366230    7.058656    15.327300    -2.528338    4.256834    -4.244174    5.174801    -16.688538    6.971656    -3.624756    31.077900    -2.131392    2.839607    -10.039598    -6.675252    0.000000    0.000000    0.000000    -3.412180    -5.048157    -0.966069    8.262380    8.698958    5.152349    -20.637323    -8.403973    -4.220258    0.000000    0.000000    0.000000    
-12.781408    96.719429    133.544067    -1.422134    -7.216533    179.870667    -0.101435    -9.912700    1.627207    -0.930612    0.019686    1.636186    3.214204    17.208893    0.570875    -1.631419    -4.291383    0.330332    8.736328    6.937353    8.046989    -65.589294    23.558023    -23.383825    -0.626261    -8.815552    -67.683731    -4.408838    -9.391487    4.243972    -3.983428    7.061563    3.442271    68.704636    9.851532    5.448868    21.393135    7.008650    15.826460    -2.548930    4.104536    -4.099841    5.027012    -15.897729    6.720410    -3.756922    29.651016    -1.514089    2.564506    -10.090646    -6.735265    0.000000    0.000000    0.000000    -3.494965    -4.873697    -0.817474    8.318585    8.429723    5.099738    -20.509991    -8.313631    -4.012825    0.000000    0.000000    0.000000    
-12.853143    96.734062    133.474518    -1.373932    -7.289769    179.718918    0.197205    -10.390688    1.519440    -1.636574    0.573889    1.509682    3.748433    17.105005    0.735944    -1.674868    -4.817873    0.487966    9.141557    6.929305    8.330545    -65.944359    23.773542    -23.090183    -0.937590    -8.429339    -66.247169    -4.451907    -9.197649    4.264076    -3.456880    6.709032    3.845331    68.367874    9.689971    5.643736    21.672338    7.039348    15.967960    -2.361217    4.060069    -4.055627    4.940591    -15.247801    6.593329    -3.805058    28.264179    -0.904848    2.522409    -10.230084    -7.154078    0.000000    0.000000    0.000000    -3.477232    -4.796035    -0.962046    8.273348    8.178576    5.134081    -20.373146    -8.273266    -3.706085    0.000000    0.000000    0.000000    
-12.937045    96.759621    133.416885    -1.327898    -7.389167    179.589111    -0.325069    -10.168819    1.523860    -0.711616    -0.070955    1.552388    3.560791    17.194147    0.618627    -1.750527    -5.085281    0.349527    8.772996    7.325699    8.348873    -66.308624    23.891792    -22.882685    -1.528450    -7.624968    -64.643661    -4.237146    -8.732405    4.102603    -3.907407    6.863175    3.267934    68.248268    10.179675    5.889517    21.722748    5.535937    16.510969    -1.777287    2.402364    -3.189843    4.827002    -14.618320    6.416310    -3.916854    26.851377    -0.338640    2.662852    -10.326114    -7.289697    0.000000    0.000000    0.000000    -3.533637    -4.837405    -0.665568    8.445412    8.081535    4.845522    -20.326017    -8.216469    -3.563187    0.000000    0.000000    0.000000    
-13.021393    96.770760    133.294250    -1.377447    -7.329609    179.364044    -1.121742    -10.012458    1.572195    0.775734    -0.668688    1.675015    2.749433    17.702974    0.483552    -1.529116    -5.499053    0.251007    7.583779    7.550333    7.632620    -66.477722    23.408604    -21.960592    -2.159641    -6.803425    -62.909988    -4.074304    -8.250826    3.901432    -4.568184    7.265656    3.022317    67.982620    9.732752    6.213833    22.187174    5.676172    16.539265    -1.857527    2.469509    -3.170211    4.617522    -13.755227    6.368181    -3.939589    25.347157    -0.316556    2.882091    -10.300720    -7.046977    0.000000    0.000000    0.000000    -3.620297    -4.576220    -0.599673    8.428973    7.732796    4.874765    -20.265051    -8.137643    -3.371075    0.000000    0.000000    0.000000    
-13.095668    96.800400    133.220917    -1.306775    -7.382257    179.328476    -1.302251    -10.044004    1.463006    1.035159    -0.853531    1.585147    2.834954    17.869116    0.512019    -1.615885    -5.959754    0.263489    7.493408    7.827469    7.828842    -66.778770    23.763042    -21.843863    -2.492971    -6.370380    -60.972828    -3.897672    -7.957757    3.879081    -4.616091    7.332731    2.919509    67.766029    9.976264    6.495496    22.355261    5.786700    16.731691    -2.345058    2.506768    -2.047430    4.500817    -13.160693    6.190572    -4.027607    24.120564    -0.133897    3.311682    -10.360769    -6.795881    0.000000    0.000000    0.000000    -3.581365    -4.432118    -0.625938    8.402536    7.384724    4.937603    -20.156685    -7.917733    -3.254578    0.000000    0.000000    0.000000    
-13.168377    96.830635    133.146469    -1.230073    -7.400925    179.348831    -0.984390    -10.369053    1.356458    0.238101    -0.498321    1.446831    3.319690    17.434275    0.538930    -1.402238    -5.658134    0.330004    7.994077    7.931299    8.066148    -67.069160    24.291348    -21.837931    -2.728186    -6.192494    -58.945534    -3.619746    -7.854070    4.179642    -3.984102    7.188076    3.074757    67.597076    10.296572    6.672739    21.997284    5.608886    17.717928    -2.222455    2.201683    -2.928531    4.371534    -12.576859    6.004895    -4.098635    22.990910    -0.185122    3.872081    -10.458117    -6.239941    0.000000    0.000000    0.000000    -3.520313    -4.226762    -0.629650    8.351305    7.010404    4.976540    -20.063208    -7.703362    -3.234982    0.000000    0.000000    0.000000    
-13.239591    96.855202    133.087006    -1.159269    -7.469477    179.418030    -1.763067    -9.970511    1.166799    1.622586    -1.343436    1.339633    2.677659    17.082216    0.508656    -1.215129    -5.018354    0.324835    7.256257    8.269928    8.356028    -67.208885    25.226122    -21.677708    -2.826817    -6.050839    -56.954880    -3.502621    -7.714195    4.635306    -4.664978    7.432427    2.621142    67.531174    10.879583    6.908006    21.844275    5.423129    18.719454    -1.935418    1.839338    -3.223148    4.239375    -12.124509    5.659489    -4.229159    21.964073    0.027897    4.456100    -10.490982    -5.829707    0.000000    0.000000    0.000000    -3.475619    -4.065982    -0.596110    8.303161    6.608099    5.017056    -19.942194    -7.466731    -3.274773    0.000000    0.000000    0.000000    
-13.295533    96.880051    133.031326    -1.081393    -7.535289    179.525940    -2.023167    -9.928174    0.970583    1.879780    -1.581547    1.172306    2.728515    17.030121    0.588367    -1.152289    -5.098538    0.417602    7.196661    8.324854    8.435855    -67.582680    25.719101    -21.224598    -3.224458    -5.868863    -55.160721    -3.214625    -7.692587    5.409154    -4.582945    7.312207    2.591424    67.324203    10.995891    6.913898    21.828423    5.339359    19.579563    -1.771056    1.581180    -3.129317    4.127080    -11.681298    5.347129    -4.342066    20.892775    0.312388    4.964201    -10.431023    -5.588757    0.000000    0.000000    0.000000    -3.402313    -3.894405    -0.536866    8.241985    6.182125    4.809739    -19.798056    -7.277890    -3.211843    0.000000    0.000000    0.000000    
